<svg width="512" height="512" viewBox="0 0 512 512" fill="none" xmlns="http://www.w3.org/2000/svg">
<rect width="512" height="512" rx="150" fill="#8C71FB"/>
<circle cx="255" cy="255" r="200" fill="white"/>
<g clip-path="url(#clip0_771_13)">
<path d="M158.841 219.04C158.037 217.735 157.51 216.25 157.291 214.679C157.072 213.108 157.166 211.484 157.569 209.908C157.971 208.333 158.672 206.841 159.628 205.524C160.584 204.207 161.775 203.095 163.126 202.256L318.828 106.169C320.415 105.199 322.176 104.633 323.961 104.518C325.745 104.403 327.501 104.744 329.078 105.511C330.655 106.277 332.007 107.447 333.019 108.922C334.031 110.396 334.673 112.131 334.89 113.979L355.541 295.672C355.731 297.264 355.601 298.903 355.159 300.483C354.718 302.064 353.975 303.553 352.977 304.855C351.98 306.157 350.75 307.244 349.365 308.046C347.981 308.849 346.472 309.349 344.936 309.516L236.37 320.856C232.524 321.254 228.713 320.593 225.313 318.94C221.913 317.287 219.04 314.698 216.977 311.428L158.841 219.04Z" stroke="#8C71FB" stroke-width="20" stroke-linecap="round" stroke-linejoin="round"/>
<path d="M329.091 105.485L225.325 318.917" stroke="#8C71FB" stroke-width="20" stroke-linecap="round" stroke-linejoin="round"/>
<path d="M352.937 301.795L160.004 210.887" stroke="#8C71FB" stroke-width="20" stroke-linecap="round" stroke-linejoin="round"/>
</g>
<g clip-path="url(#clip1_771_13)">
<path d="M353.162 293.5C353.965 294.806 354.493 296.291 354.712 297.862C354.931 299.433 354.836 301.057 354.434 302.632C354.032 304.208 353.33 305.7 352.374 307.017C351.418 308.333 350.227 309.446 348.876 310.284L193.171 406.366C191.584 407.336 189.823 407.902 188.038 408.017C186.253 408.132 184.498 407.791 182.921 407.024C181.344 406.258 179.992 405.087 178.98 403.613C177.968 402.139 177.326 400.404 177.109 398.556L156.464 216.862C156.275 215.27 156.405 213.631 156.846 212.051C157.288 210.47 158.031 208.981 159.028 207.679C160.026 206.377 161.256 205.29 162.64 204.488C164.025 203.686 165.533 203.185 167.07 203.019L275.636 191.682C279.482 191.285 283.293 191.945 286.693 193.598C290.093 195.252 292.966 197.841 295.029 201.111L353.162 293.5Z" stroke="#8C71FB" stroke-width="20" stroke-linecap="round" stroke-linejoin="round"/>
<path d="M182.908 407.05L286.681 193.622" stroke="#8C71FB" stroke-width="20" stroke-linecap="round" stroke-linejoin="round"/>
<path d="M159.068 210.739L351.998 301.654" stroke="#8C71FB" stroke-width="20" stroke-linecap="round" stroke-linejoin="round"/>
</g>
<defs>
<clipPath id="clip0_771_13">
<rect width="261.376" height="284.782" fill="white" transform="translate(221.934 27) rotate(25.928)"/>
</clipPath>
<clipPath id="clip1_771_13">
<rect width="261.376" height="284.782" fill="white" transform="translate(290.062 485.539) rotate(-154.07)"/>
</clipPath>
</defs>
</svg>
